<svg width="32" height="32" viewBox="0 0 32 32" fill="none" xmlns="http://www.w3.org/2000/svg">
<path d="M29.0087 23.3451C29.6997 21.912 30.0387 20.3346 29.9977 18.7441C29.9566 17.1536 29.5367 15.5959 28.7727 14.2003C28.0087 12.8047 26.9227 11.6116 25.605 10.7199C24.2873 9.82834 22.7758 9.26401 21.1962 9.07385C20.6706 7.85181 19.9065 6.74692 18.9485 5.82388C17.9906 4.90084 16.8581 4.17821 15.6174 3.6983C14.3767 3.21839 13.0527 2.99086 11.723 3.02902C10.3933 3.06718 9.08452 3.37026 7.87339 3.92053C6.66225 4.4708 5.57308 5.25718 4.66965 6.23364C3.76622 7.21009 3.0667 8.35699 2.61204 9.60716C2.15739 10.8573 1.95674 12.1857 2.02185 13.5143C2.08696 14.843 2.41651 16.1454 2.99122 17.3451L2.08247 20.4339C1.98086 20.7787 1.97407 21.1445 2.0628 21.4928C2.15154 21.8412 2.33252 22.1592 2.5867 22.4134C2.84089 22.6676 3.15888 22.8485 3.50723 22.9373C3.85558 23.026 4.22141 23.0192 4.56622 22.9176L7.65497 22.0089C8.64676 22.4854 9.71008 22.7957 10.8025 22.9276C11.3332 24.1711 12.1106 25.2941 13.0876 26.2286C14.0646 27.1632 15.221 27.8899 16.4869 28.3649C17.7527 28.8398 19.1018 29.0531 20.4524 28.992C21.803 28.9308 23.1272 28.5963 24.345 28.0089L27.4337 28.9176C27.7784 29.0191 28.1441 29.0258 28.4923 28.9372C28.8405 28.8485 29.1583 28.6676 29.4125 28.4136C29.6666 28.1596 29.8476 27.8418 29.9365 27.4937C30.0254 27.1455 30.0188 26.7798 29.9175 26.4351L29.0087 23.3451ZM7.74997 19.9376C7.65441 19.9378 7.55934 19.9513 7.46747 19.9776L3.99997 21.0001L5.02122 17.5301C5.09385 17.2794 5.06559 17.0102 4.94247 16.7801C4.03786 15.0883 3.77131 13.1278 4.19143 11.2559C4.61154 9.38405 5.69033 7.72547 7.23115 6.58253C8.77197 5.4396 10.6722 4.88842 12.5855 5.02947C14.4987 5.17053 16.2976 5.99442 17.6541 7.35097C19.0106 8.70751 19.8345 10.5064 19.9756 12.4196C20.1167 14.3329 19.5655 16.2331 18.4225 17.7739C17.2796 19.3147 15.621 20.3935 13.7491 20.8136C11.8773 21.2338 9.91675 20.9672 8.22497 20.0626C8.07949 19.9821 7.91623 19.9391 7.74997 19.9376ZM26.9737 23.5289L28 27.0001L24.53 25.9789C24.2793 25.9062 24.0101 25.9345 23.78 26.0576C21.9385 27.0409 19.7858 27.266 17.7807 26.6851C15.7757 26.1041 14.0768 24.763 13.0462 22.9476C14.4154 22.8047 15.7404 22.3804 16.9379 21.7012C18.1353 21.0221 19.1796 20.1029 20.005 19.0011C20.8305 17.8994 21.4193 16.639 21.7347 15.2989C22.05 13.9588 22.085 12.5681 21.8375 11.2139C23.0305 11.4951 24.1429 12.0466 25.0889 12.826C26.0349 13.6053 26.7891 14.5916 27.2935 15.7088C27.7978 16.8259 28.0387 18.0439 27.9975 19.2689C27.9564 20.4939 27.6343 21.6931 27.0562 22.7739C26.9318 23.0054 26.9035 23.2766 26.9775 23.5289H26.9737Z" fill="#343330"/>
</svg>
