<svg width="512" height="512" viewBox="0 0 512 512" fill="none" xmlns="http://www.w3.org/2000/svg">
<g clip-path="url(#clip0_7_225)">
<path d="M0 300C0 158.579 0 87.868 43.934 43.934C87.868 0 158.579 0 300 0H502C506.714 0 509.071 0 510.536 1.46447C512 2.92893 512 5.28595 512 10V212C512 353.421 512 424.132 468.066 468.066C424.132 512 353.421 512 212 512H10C5.28595 512 2.92893 512 1.46447 510.536C0 509.071 0 506.714 0 502V300Z" fill="white"/>
<path d="M122.302 344V166.5H231.302V196.75H156.552V344H122.302ZM255.579 344V166.5H289.829V238H307.329L360.079 166.5H398.579L334.079 252.5L403.579 344H361.829L306.829 269.25H289.829V344H255.579Z" fill="#191D21"/>
</g>
<defs>
<clipPath id="clip0_7_225">
<rect width="512" height="512" fill="white"/>
</clipPath>
</defs>
</svg>
